<svg width="74" height="78" viewBox="0 0 74 78" fill="none" xmlns="http://www.w3.org/2000/svg">
<g id="Group 66">
<g id="Group">
<g id="Group_2">
<path id="Vector" d="M22.3151 13.5635C21.6903 13.5635 21.1836 14.1084 21.1836 14.7808C21.1836 16.2575 20.0669 17.459 18.6944 17.459C17.3219 17.459 16.2052 16.2575 16.2052 14.7808C16.2052 13.3041 17.3219 12.1027 18.6944 12.1027C19.3192 12.1027 19.8259 11.5577 19.8259 10.8853C19.8259 10.2129 19.3193 9.66797 18.6944 9.66797C16.0741 9.66797 13.9424 11.9616 13.9424 14.7807C13.9424 17.5997 16.0742 19.8934 18.6944 19.8934C21.3146 19.8934 23.4464 17.5997 23.4464 14.7807C23.4466 14.1084 22.9399 13.5635 22.3151 13.5635Z" fill="white"/>
</g>
</g>
<g id="Group_3">
<g id="Group_4">
<path id="Vector_2" d="M22.3151 27.8467C21.6903 27.8467 21.1836 28.3916 21.1836 29.064C21.1836 30.5407 20.0669 31.7422 18.6944 31.7422C17.3219 31.7422 16.2052 30.5407 16.2052 29.064C16.2052 27.5873 17.3219 26.3859 18.6944 26.3859C19.3192 26.3859 19.8259 25.8409 19.8259 25.1685C19.8259 24.4962 19.3193 23.9512 18.6944 23.9512C16.0741 23.9512 13.9424 26.2448 13.9424 29.0639C13.9424 31.8829 16.0742 34.1766 18.6944 34.1766C21.3146 34.1766 23.4464 31.8829 23.4464 29.0639C23.4466 28.3918 22.9399 27.8467 22.3151 27.8467Z" fill="white"/>
</g>
</g>
<g id="Group_5">
<g id="Group_6">
<path id="Vector_3" d="M40.687 31.3076H32.2389C31.6141 31.3076 31.1074 31.8526 31.1074 32.525C31.1074 33.1973 31.614 33.7423 32.2389 33.7423H40.687C41.3118 33.7423 41.8185 33.1973 41.8185 32.525C41.8185 31.8526 41.3119 31.3076 40.687 31.3076Z" fill="white"/>
</g>
</g>
<g id="Group_7">
<g id="Group_8">
<path id="Vector_4" d="M40.687 26.1143H32.2389C31.6141 26.1143 31.1074 26.6592 31.1074 27.3316C31.1074 28.004 31.614 28.549 32.2389 28.549H40.687C41.3118 28.549 41.8185 28.004 41.8185 27.3316C41.8185 26.6592 41.3119 26.1143 40.687 26.1143Z" fill="white"/>
</g>
</g>
<g id="Group_9">
<g id="Group_10">
<path id="Vector_5" d="M38.2733 45.5908H32.2389C31.6141 45.5908 31.1074 46.1358 31.1074 46.8082C31.1074 47.4805 31.614 48.0255 32.2389 48.0255H38.2733C38.8981 48.0255 39.4048 47.4805 39.4048 46.8082C39.4048 46.1358 38.8981 45.5908 38.2733 45.5908Z" fill="white"/>
</g>
</g>
<g id="Group_11">
<g id="Group_12">
<path id="Vector_6" d="M40.687 40.3975H32.2389C31.6141 40.3975 31.1074 40.9424 31.1074 41.6148C31.1074 42.2872 31.614 42.8322 32.2389 42.8322H40.687C41.3118 42.8322 41.8185 42.2872 41.8185 41.6148C41.8185 40.9424 41.3119 40.3975 40.687 40.3975Z" fill="white"/>
</g>
</g>
<g id="Group_13">
<g id="Group_14">
<path id="Vector_7" d="M51.5488 17.0244H32.2389C31.6141 17.0244 31.1074 17.5694 31.1074 18.2418C31.1074 18.9142 31.614 19.4592 32.2389 19.4592H51.5487C52.1735 19.4592 52.6802 18.9142 52.6802 18.2418C52.6802 17.5694 52.1736 17.0244 51.5488 17.0244Z" fill="white"/>
</g>
</g>
<g id="Group_15">
<g id="Group_16">
<path id="Vector_8" d="M46.7213 11.8311H32.2389C31.6141 11.8311 31.1074 12.376 31.1074 13.0484C31.1074 13.7208 31.614 14.2658 32.2389 14.2658H46.7213C47.3461 14.2658 47.8528 13.7208 47.8528 13.0484C47.8528 12.376 47.3463 11.8311 46.7213 11.8311Z" fill="white"/>
</g>
</g>
<g id="Group_17">
<g id="Group_18">
<path id="Vector_9" d="M22.3151 42.1299C21.6903 42.1299 21.1836 42.6749 21.1836 43.3473C21.1836 44.824 20.0669 46.0254 18.6944 46.0254C17.3219 46.0254 16.2052 44.824 16.2052 43.3473C16.2052 41.8705 17.3219 40.6691 18.6944 40.6691C19.3192 40.6691 19.8259 40.1241 19.8259 39.4517C19.8259 38.7794 19.3193 38.2344 18.6944 38.2344C16.0741 38.2344 13.9424 40.528 13.9424 43.3471C13.9424 46.1662 16.0742 48.4598 18.6944 48.4598C21.3146 48.4598 23.4464 46.1662 23.4464 43.3471C23.4466 42.6749 22.9399 42.1299 22.3151 42.1299Z" fill="white"/>
</g>
</g>
<g id="Group_19">
<g id="Group_20">
<path id="Vector_10" d="M58.487 0H4.65125C2.08667 0 0 1.71101 0 3.81425V58.3499C0 60.4531 2.08648 62.1641 4.65125 62.1641H31.5692C32.389 62.1641 33.0537 61.6191 33.0537 60.9468C33.0537 60.2745 32.3891 59.7294 31.5692 59.7294H4.65125C3.72356 59.7294 2.96881 59.1105 2.96881 58.3497V3.81425C2.96881 3.0535 3.72356 2.43457 4.65125 2.43457H58.487C59.4147 2.43457 60.1694 3.0535 60.1694 3.81425V44.067C60.1694 44.7392 60.834 45.2843 61.6539 45.2843C62.4737 45.2843 63.1384 44.7393 63.1384 44.067V3.81425C63.1382 1.71101 61.0518 0 58.487 0Z" fill="white"/>
</g>
</g>
<g id="Group_21">
<g id="Group_22">
<path id="Vector_11" d="M70.2756 49.3647C69.224 49.2519 68.1729 49.5726 67.3411 50.2521C66.6785 49.0559 65.5485 48.2072 64.2412 48.0663C63.1893 47.9536 62.1384 48.2743 61.3067 48.9537C60.6441 47.7574 59.5142 46.9088 58.2068 46.7679C57.4038 46.6816 56.6019 46.848 55.8972 47.2339V31.7315C55.8972 30.4728 55.3995 29.2662 54.5314 28.4212C53.6641 27.5769 52.4954 27.1648 51.3247 27.2909C49.236 27.5159 47.6 29.5478 47.6 31.9167V47.4583L44.274 51.0367C42.5066 52.9383 41.7931 55.6363 42.3657 58.2542L44.8908 69.8002C45.9139 74.4788 49.7483 77.7462 54.2155 77.7462H64.4206C69.7027 77.7462 74.0001 73.1228 74.0001 67.4396V53.9909C74.0003 51.6217 72.3642 49.5898 70.2756 49.3647ZM71.7373 67.4393C71.7373 71.7798 68.4551 75.3112 64.4207 75.3112H54.2157C50.8037 75.3112 47.8749 72.8156 47.0935 69.2422L44.5684 57.6961C44.1766 55.9051 44.6648 54.059 45.8741 52.7579L47.6 50.901V55.1038C47.6 55.776 48.1065 56.3212 48.7315 56.3212C49.3564 56.3212 49.8629 55.7762 49.8629 55.1038V31.9166C49.8629 30.783 50.604 29.8152 51.5504 29.7134C52.0939 29.6547 52.6137 29.8372 53.0134 30.2265C53.4081 30.6109 53.6345 31.1595 53.6345 31.7316V53.1564C53.6345 53.8286 54.141 54.3737 54.766 54.3737C55.3909 54.3737 55.8975 53.8288 55.8975 53.1564V51.2086C55.8975 50.6365 56.1237 50.0878 56.5186 49.7035C56.9186 49.3142 57.4381 49.1315 57.9816 49.1904C58.9278 49.2923 59.669 50.2602 59.669 51.3937V54.4545C59.669 55.1267 60.1755 55.6719 60.8005 55.6719C61.4253 55.6719 61.932 55.1269 61.932 54.4545V52.5068C61.932 51.9346 62.1582 51.386 62.5531 51.0017C62.9531 50.6123 63.4727 50.4298 64.0161 50.4886C64.9623 50.5905 65.7035 51.5583 65.7035 52.6919V55.7528C65.7035 56.425 66.21 56.9702 66.835 56.9702C67.4598 56.9702 67.9665 56.4252 67.9665 55.7528V53.8051C67.9665 53.2329 68.1927 52.6843 68.5876 52.3C68.9876 51.9108 69.5068 51.7279 70.0506 51.787C70.9968 51.8888 71.738 52.8566 71.738 53.9902V67.4393H71.7373Z" fill="white"/>
</g>
</g>
</g>
</svg>
