<svg width="17" height="25" viewBox="0 0 17 25" fill="none" xmlns="http://www.w3.org/2000/svg">
<g id="&#208;&#152;&#208;&#186;&#208;&#190;&#208;&#189;&#208;&#186;&#208;&#176;_&#208;&#155;&#208;&#190;&#208;&#186;&#208;&#176;&#209;&#134;&#208;&#184;&#208;&#184;">
<g id="Group">
<path id="Vector" d="M8.5 0C3.8131 0 0 3.85087 0 8.5842C0 10.1834 0.438647 11.7441 1.26881 13.0982L8.01616 24.0791C8.14541 24.2895 8.37311 24.4173 8.61801 24.4173C8.6199 24.4173 8.62174 24.4173 8.62363 24.4173C8.87065 24.4153 9.09883 24.2836 9.22571 24.0695L15.8011 12.9822C16.5854 11.6568 17 10.136 17 8.5842C17 3.85087 13.1869 0 8.5 0ZM14.5853 12.2477L8.60729 22.3278L2.47289 12.3444C1.78188 11.2174 1.40722 9.91714 1.40722 8.5842C1.40722 4.63976 4.59425 1.42116 8.5 1.42116C12.4058 1.42116 15.5881 4.63976 15.5881 8.5842C15.5881 9.87761 15.2381 11.1446 14.5853 12.2477Z" fill="black"/>
</g>
<g id="Group_2">
<g id="Group_3">
<path id="Vector_2" d="M8.49671 3.61719C5.89284 3.61719 3.77441 5.64563 3.77441 8.13891C3.77441 10.6163 5.85836 12.6606 8.49671 12.6606C11.1676 12.6606 13.219 10.589 13.219 8.13891C13.219 5.64563 11.1006 3.61719 8.49671 3.61719ZM8.49671 11.1634C6.75172 11.1634 5.33802 9.80526 5.33802 8.13891C5.33802 6.47672 6.76079 5.11438 8.49671 5.11438C10.2326 5.11438 11.6502 6.47672 11.6502 8.13891C11.6502 9.78094 10.2694 11.1634 8.49671 11.1634Z" fill="black"/>
</g>
</g>
</g>
</svg>
