<svg width="22" height="29" viewBox="0 0 22 29" fill="none" xmlns="http://www.w3.org/2000/svg">
<g id="Group">
<path id="Vector" d="M10.5946 15.3115C10.6206 15.3115 10.6466 15.3115 10.6778 15.3115C10.6882 15.3115 10.6986 15.3115 10.709 15.3115C10.7246 15.3115 10.7455 15.3115 10.7611 15.3115C12.2854 15.2828 13.5184 14.6928 14.4288 13.5643C16.4318 11.0782 16.0988 6.8163 16.0624 6.40958C15.9323 3.35636 14.6213 1.89563 13.5392 1.21395C12.7328 0.704125 11.7912 0.429163 10.7402 0.40625H10.7038C10.6986 0.40625 10.6882 0.40625 10.683 0.40625H10.6518C10.0743 0.40625 8.94018 0.509361 7.85286 1.19104C6.76034 1.87271 5.4285 3.33345 5.29844 6.40958C5.26202 6.8163 4.92906 11.0782 6.93202 13.5643C7.83726 14.6928 9.07025 15.2828 10.5946 15.3115ZM6.6875 6.55279C6.6875 6.53561 6.6927 6.51842 6.6927 6.50697C6.86439 2.39972 9.51246 1.95864 10.6466 1.95864H10.6674C10.6778 1.95864 10.6934 1.95864 10.709 1.95864C12.1137 1.99301 14.5017 2.62313 14.6629 6.50697C14.6629 6.52415 14.6629 6.54134 14.6681 6.55279C14.6733 6.59289 15.0375 10.4882 13.3831 12.5389C12.7276 13.3524 11.8536 13.7534 10.7038 13.7648C10.6934 13.7648 10.6882 13.7648 10.6778 13.7648C10.6674 13.7648 10.6622 13.7648 10.6518 13.7648C9.50726 13.7534 8.62803 13.3524 7.97772 12.5389C6.32853 10.4996 6.6823 6.58716 6.6875 6.55279Z" fill="white"/>
<path id="Vector_2" d="M21.3682 22.3804C21.3682 22.3747 21.3682 22.3689 21.3682 22.3632C21.3682 22.3174 21.363 22.2716 21.363 22.22C21.3318 21.0858 21.2641 18.4336 19.0062 17.5858C18.9906 17.58 18.9698 17.5743 18.9542 17.5686C16.6079 16.9098 14.6569 15.4204 14.6361 15.4032C14.3188 15.1569 13.8817 15.2429 13.658 15.5923C13.4343 15.9417 13.5124 16.4229 13.8297 16.6692C13.9182 16.738 15.9888 18.3247 18.5796 19.0579C19.7918 19.5334 19.9271 20.9598 19.9635 22.2658C19.9635 22.3174 19.9635 22.3632 19.9687 22.409C19.9739 22.9246 19.9427 23.7208 19.8594 24.1791C19.0166 24.7061 15.713 26.5277 10.6874 26.5277C5.68257 26.5277 2.35816 24.7004 1.51015 24.1734C1.42691 23.7151 1.39049 22.9189 1.40089 22.4033C1.40089 22.3575 1.4061 22.3117 1.4061 22.2601C1.44251 20.954 1.57778 19.5277 2.78997 19.0522C5.38082 18.319 7.45143 16.7265 7.53987 16.6635C7.85722 16.4172 7.93526 15.936 7.71155 15.5866C7.48784 15.2371 7.05083 15.1512 6.73348 15.3975C6.71267 15.4147 4.77213 16.9041 2.41539 17.5628C2.39458 17.5686 2.37897 17.5743 2.36336 17.58C0.105466 18.4336 0.0378337 21.0858 0.00661858 22.2143C0.00661858 22.2658 0.00661846 22.3117 0.00141594 22.3575C0.00141594 22.3632 0.00141594 22.3689 0.00141594 22.3747C-0.00378658 22.6725 -0.00898899 24.202 0.266745 24.9696C0.31877 25.1186 0.412415 25.2446 0.537276 25.3305C0.693352 25.4451 4.43396 28.0687 10.6926 28.0687C16.9512 28.0687 20.6918 25.4394 20.8479 25.3305C20.9676 25.2446 21.0664 25.1186 21.1185 24.9696C21.3786 24.2078 21.3734 22.6783 21.3682 22.3804Z" fill="white"/>
</g>
</svg>
